<?xml version="1.0" standalone="no"?>
<!DOCTYPE svg PUBLIC "-//W3C//DTD SVG 20010904//EN"
 "http://www.w3.org/TR/2001/REC-SVG-20010904/DTD/svg10.dtd">
<svg version="1.0" xmlns="http://www.w3.org/2000/svg"
 width="128.000000pt" height="128.000000pt" viewBox="0 0 128.000000 128.000000"
 preserveAspectRatio="xMidYMid meet">

<g transform="translate(0.000000,128.000000) scale(0.100000,-0.100000)"
fill="#000000" stroke="none">
<path d="M511 1154 c-84 -59 -42 -194 61 -194 32 0 47 7 74 34 49 49 45 114
-10 158 -27 22 -94 23 -125 2z"/>
<path d="M171 998 c-31 -17 -144 -219 -135 -241 3 -10 35 -33 70 -53 35 -20
64 -40 64 -44 0 -5 -5 -21 -12 -35 -21 -46 0 -66 156 -154 l146 -83 0 -137 c0
-75 4 -141 8 -147 10 -15 47 -34 66 -34 9 0 25 9 36 20 18 18 20 33 20 176 0
86 3 154 8 152 27 -12 283 -162 287 -168 3 -5 -30 -20 -72 -34 -43 -14 -93
-35 -111 -46 -29 -18 -72 -73 -72 -92 0 -5 144 -8 321 -8 284 0 320 2 315 15
-3 9 -31 94 -62 190 l-56 175 -39 -22 c-21 -12 -70 -50 -108 -85 l-69 -63
-161 93 c-140 80 -161 95 -161 117 0 14 -27 124 -59 244 -77 281 -67 270 -234
274 -85 2 -129 -1 -146 -10z m146 -95 c-22 -40 -92 -163 -103 -180 l-14 -22
-35 20 c-19 12 -35 25 -35 30 0 5 19 43 43 84 l42 75 53 0 c29 0 51 -3 49 -7z
m161 -270 c12 -49 22 -92 22 -96 0 -9 -120 55 -120 65 0 10 64 118 70 118 3 0
16 -39 28 -87z"/>
<path d="M167 453 l4 -68 -80 -114 c-45 -62 -81 -123 -81 -135 0 -31 36 -66
66 -66 33 0 60 29 158 173 76 112 78 117 72 159 -6 41 -11 47 -70 81 -34 20
-65 37 -68 37 -3 0 -3 -30 -1 -67z"/>
</g>
</svg>
